PathFileType	4	(X/Y/Z)	OpenSim_Sub09_EMGBaseline_Gyro.trc
DataRate	CameraRate	NumFrames	NumMarkers	Units	OrigDataRate	OrigDataStartFrame	OrigNumFrames
100	100	34	8	m	100	2738	7301
Frame#	Time	torso_imu_offset_imu	pelvis_imu_offset_imu	tibia_r_imu_offset_imu	femur_r_imu_offset_imu	tibia_l_imu_offset_imu	femur_l_imu_offset_imu	toes_r_imu_offset_imu	toes_l_imu_offset_imu
				X1	Y1	Z1	X2	Y2	Z2	X3	Y3	Z3	X4	Y4	Z4	X5	Y5	Z5	X6	Y6	Z6	X7	Y7	Z7	X8		Y8	Z8	

2738	27.37000000	-0.06116300	0.32762400	0.08292800	0.01687500	-0.47985200	-0.45742600	3.46442600	0.37541200	-1.09443300	-0.16546700	-0.50104700	0.67152500	0.08991600	0.02191100	2.28249200	0.08827100	0.51576100	-0.49561200	0.49024800	-0.84561200	-0.34821100	-0.52949200	-3.52306600	1.65876600
2739	27.38000000	0.01944400	0.26397500	0.05661700	0.14468100	-0.33484700	-0.40588600	2.58572200	0.06043400	-0.78687200	-0.52966800	-0.21265300	0.27402200	0.06863300	-0.02539900	2.33808700	0.09339000	0.67662300	-0.62507800	0.49275500	-0.79458300	-0.27303100	-0.50982100	-3.74685800	1.92122100
2740	27.39000000	0.10632400	0.22283500	0.04765900	0.24090800	-0.24434100	-0.30035700	1.44400400	-0.48486700	-0.81161200	-0.79533500	-0.51743100	0.00533500	0.05104400	-0.08540100	2.35874200	0.09870200	0.76697800	-0.74833900	0.61278100	-0.67681600	-0.24511900	-0.75470100	-4.04867500	2.20235500
2741	27.40000000	0.18538500	0.19287400	0.02144800	0.35772500	-0.16571400	-0.23110000	0.45545100	-1.07634700	-1.24110400	-0.52354400	-0.63558200	-0.40388600	0.07915400	-0.17026400	2.37909200	0.02667700	0.69890800	-0.91746900	0.49200500	-0.46483400	-0.17093800	-0.81572500	-4.16499900	2.37245600
2742	27.41000000	0.24947400	0.18717400	0.00690900	0.46495100	-0.07464600	-0.15201100	-0.33212800	-1.41564500	-1.54425300	-0.34276100	-0.61563100	-0.93107800	0.21432200	-0.20749500	2.44665500	-0.10341800	0.55242400	-1.11397100	0.32242100	-0.22891500	-0.07889700	-0.78494500	-4.13921100	2.46553300
2743	27.42000000	0.30360300	0.18811800	0.03280400	0.54182600	-0.03744300	-0.02020400	-0.80047300	-1.54419600	-1.45395100	-0.31603100	-0.59093200	-1.29581300	0.30071200	-0.15084800	2.51411800	-0.15809800	0.43460200	-1.32208100	0.18868700	-0.13456800	-0.00795300	-0.78472300	-3.93058300	2.58685900
2744	27.43000000	0.31334700	0.18471100	0.04667500	0.60780600	-0.02839600	0.08186600	-0.94987000	-1.50214500	-1.09439800	-0.19256100	-0.54448700	-1.49359500	0.38128700	-0.10167600	2.50242700	-0.10141100	0.40522900	-1.51110400	0.13548600	-0.06359900	0.02686800	-0.85616700	-3.79048500	2.68819600
2745	27.44000000	0.28985000	0.17476600	0.04635100	0.64348000	-0.03104400	0.12455100	-1.03236900	-1.19946000	-0.66558100	-0.04706700	-0.43529100	-1.54749400	0.36926200	-0.08926500	2.40133800	0.06249300	0.40344500	-1.62181600	0.06462600	-0.03948500	0.05590700	-0.51116700	-3.59839400	2.68327500
2746	27.45000000	0.26932900	0.15531900	0.05642200	0.64870600	-0.02317800	0.13443500	-0.96975500	-0.82398100	-0.38580900	-0.02423200	-0.29838700	-1.45088300	0.31640900	-0.17612500	2.26684200	0.27020000	0.38341100	-1.66559000	0.03796100	-0.02668800	0.06550000	-0.03871700	-3.40911800	2.56950400
2747	27.46000000	0.23869100	0.13336500	0.08185900	0.64105200	-0.00607100	0.13006700	-0.90780900	-0.52168200	-0.29632800	0.12270300	-0.17172500	-1.22198100	0.41120500	-0.32777000	2.11277000	0.48903300	0.35654600	-1.64630200	0.02270700	-0.00859300	0.07284600	0.31278900	-3.24110000	2.48259500
2748	27.47000000	0.19161900	0.10112600	0.10852100	0.61151400	0.01057200	0.11495800	-0.86625400	-0.31687900	-0.27801900	0.33641800	-0.14562200	-1.02897200	0.53631700	-0.43295900	1.93522000	0.67377600	0.34393200	-1.59588000	0.01154500	-0.01156800	0.07103400	0.50846000	-2.89693600	2.40646100
2749	27.48000000	0.17717000	0.07479800	0.12182200	0.56771600	0.03642800	0.08599300	-0.83116900	-0.21043400	-0.31100400	0.44767600	-0.17019200	-0.92823500	0.58204400	-0.45039600	1.74775300	0.80013500	0.34749800	-1.53017300	0.04068200	0.00124000	0.05901000	0.51991700	-2.41524000	2.39914800
2750	27.49000000	0.17532900	0.04859300	0.10473800	0.50826800	0.05721400	0.02902300	-0.86858300	-0.18991600	-0.37286900	0.46565700	-0.13071700	-0.86930600	0.67736900	-0.44392800	1.54678100	0.89844000	0.37338900	-1.47039000	0.08645100	-0.00527100	0.04077800	0.98236600	-0.93529300	1.85384100
2751	27.50000000	0.18987700	0.02638000	0.12922600	0.43815600	0.06497500	-0.04902700	-0.90958800	-0.26117500	-0.44212200	0.43760500	-0.09308500	-0.84788400	1.05911700	-0.49634600	1.28853100	0.97121300	0.44152100	-1.42443400	0.12771100	0.01735900	0.02222900	1.39039900	0.70735600	1.16416600
2752	27.51000000	0.20678900	-0.00411000	0.10931400	0.36561000	0.07613100	-0.11546800	-0.86745300	-0.45635100	-0.51536600	0.36421800	-0.10237300	-0.88399800	1.68255400	-0.76634700	0.93502000	1.02923400	0.46211500	-1.38394100	0.16971300	0.04071900	-0.00477000	1.58693200	1.00395100	0.92775300
2753	27.52000000	0.21776200	-0.03569800	0.10611900	0.30315600	0.08028800	-0.18173900	-0.68308100	-0.57344200	-0.56963900	0.26989100	-0.16815200	-0.92521200	2.39027500	-1.21245900	0.46518300	0.98103500	0.37481400	-1.34160300	0.21544600	0.04398800	-0.02273600	0.76427700	0.80070800	0.80730000
2754	27.53000000	0.23197300	-0.06046000	0.08432200	0.27692500	0.09172500	-0.22983100	-0.45051900	-0.47866100	-0.56445500	0.15368900	-0.25347100	-0.93125400	3.00588100	-1.21441400	-0.07204000	0.85838900	0.24785100	-1.33129200	0.25161300	0.05723800	-0.04298100	0.54324800	0.65595300	0.48315100
2755	27.54000000	0.25869800	-0.06998200	0.05172600	0.26953900	0.10067600	-0.26406900	-0.17460300	-0.29061700	-0.49474900	-0.02401900	-0.35258100	-0.90549600	3.27142800	-0.68965600	-0.62195000	0.67900200	0.11800000	-1.35027600	0.25764700	0.07306000	-0.05007800	0.76704500	0.82097000	-0.00497300
2756	27.55000000	0.31445000	-0.06399000	0.02781600	0.28364300	0.09792500	-0.29896900	0.07916900	-0.13654500	-0.36049300	-0.22356500	-0.42205700	-0.87667100	3.09535700	-0.24915100	-1.07282400	0.44369800	-0.00157100	-1.35292300	0.25219300	0.09131000	-0.04659700	0.98707600	1.14995300	-0.51213200
2757	27.56000000	0.35702900	-0.05882400	0.00666800	0.30211300	0.09376100	-0.33601900	0.19524000	-0.03912300	-0.26046100	-0.40524200	-0.46854500	-0.87785100	2.46360400	-0.19881600	-1.33329000	0.21441100	-0.08525600	-1.32155700	0.25572500	0.09562200	-0.05670300	1.05599200	1.42855600	-0.92529700
2758	27.57000000	0.38558700	-0.05090100	-0.00453800	0.31125200	0.09495900	-0.37071500	0.08374800	-0.07190400	-0.23851700	-0.56339900	-0.47390000	-0.87785600	1.50933500	-0.36050500	-1.45494100	0.05753200	-0.14564100	-1.26696600	0.25338900	0.10612800	-0.06329700	0.94685500	1.63673300	-1.22629800
2759	27.58000000	0.40418100	-0.05240500	-0.00521900	0.29972900	0.09962500	-0.41443500	-0.15900200	-0.15497700	-0.27105300	-0.65921300	-0.43788200	-0.86268500	0.60255800	-0.56205700	-1.55739500	-0.05199900	-0.17280400	-1.21119000	0.28876900	0.09263500	-0.08611100	0.78355600	1.81176100	-1.44295300
2760	27.59000000	0.40830500	-0.05419100	-0.00473300	0.28096100	0.10474500	-0.44285100	-0.30571100	-0.16648600	-0.30888700	-0.67663500	-0.38482800	-0.84513900	-0.03904800	-0.66752500	-1.74986600	-0.13762300	-0.16952300	-1.16973100	0.29938200	0.09549400	-0.10640100	0.74094500	1.98026400	-1.60492200
2761	27.60000000	0.40244100	-0.06137100	-0.01336400	0.25805300	0.10821000	-0.46703500	-0.39914500	-0.13230000	-0.30302200	-0.61096200	-0.31130800	-0.80996200	-0.47181500	-0.60479000	-2.03277500	-0.22094000	-0.14208300	-1.11897700	0.31520300	0.08556700	-0.12802100	0.84282100	2.14635200	-1.72219200
2762	27.61000000	0.38415200	-0.07171700	-0.02447500	0.24813600	0.11214000	-0.48473100	-0.44624900	-0.12770100	-0.28148900	-0.49849800	-0.23806600	-0.76869700	-0.74446900	-0.44683900	-2.36992500	-0.30294400	-0.10611100	-1.04102200	0.33848800	0.07012400	-0.14606900	1.05003800	2.32041300	-1.79784000
2763	27.62000000	0.36458900	-0.08851000	-0.03765200	0.23765200	0.11277700	-0.47705200	-0.46802100	-0.19666900	-0.30198800	-0.37593300	-0.18350900	-0.74367000	-0.86775300	-0.28344000	-2.69196700	-0.35710200	-0.04986200	-0.96060500	0.35744900	0.04999600	-0.16977200	1.29726500	2.52772400	-1.84275900
2764	27.63000000	0.36587500	-0.09809700	-0.03978700	0.22428300	0.10557800	-0.45968000	-0.47086600	-0.26673400	-0.35537800	-0.25121000	-0.13598500	-0.72409700	-0.94838500	-0.16870000	-2.98626500	-0.41601400	0.00614600	-0.87677600	0.35413100	0.04778600	-0.18840700	1.48580700	2.72254400	-1.84109500
2765	27.64000000	0.36385000	-0.11829500	-0.04489000	0.18859400	0.08689500	-0.43119700	-0.49137200	-0.23103000	-0.39777100	-0.15036500	-0.10522800	-0.69020200	-1.01806000	-0.12967800	-3.26478400	-0.45312500	0.04005900	-0.78803500	0.36503300	0.04639800	-0.20922500	1.63218600	2.92962900	-1.83536000
2766	27.65000000	0.36673400	-0.13496600	-0.05694400	0.17399900	0.07082900	-0.39453600	-0.42376500	-0.21156700	-0.41520000	-0.06414600	-0.09688400	-0.65893800	-0.98456100	-0.15925600	-3.50388000	-0.45345600	0.04625300	-0.72082000	0.36657600	0.04704500	-0.22669000	1.70074300	3.13961900	-1.83190900
2767	27.66000000	0.36620300	-0.14641500	-0.05257200	0.16203900	0.05109000	-0.33922300	-0.29603400	-0.19788400	-0.42817700	0.02541700	-0.09979200	-0.62628400	-0.83949000	-0.17232900	-3.70934800	-0.44716400	0.05455500	-0.67840500	0.34527100	0.03725200	-0.22907800	1.72331300	3.31421100	-1.83653100
2768	27.67000000	0.36485200	-0.16426200	-0.06163500	0.16576300	0.04349000	-0.29429800	-0.21572600	-0.18479400	-0.43700100	0.13013300	-0.10318000	-0.61154500	-0.63598800	-0.08956500	-3.86997400	-0.46929000	0.07355800	-0.63407400	0.35937300	0.03359500	-0.23982200	1.77078800	3.43237600	-1.83466500
2769	27.68000000	0.35487400	-0.17191600	-0.06985200	0.17634100	0.04473500	-0.25827400	-0.22063400	-0.18910400	-0.46719700	0.24821700	-0.10307900	-0.62087200	-0.42053800	0.03796700	-3.98859100	-0.49181800	0.09960600	-0.59260300	0.31539800	0.04165000	-0.23088600	1.81943900	3.48299600	-1.82057400
2770	27.69000000	0.33584200	-0.18477200	-0.07656500	0.20706700	0.04186300	-0.22941000	-0.22354500	-0.18789400	-0.52918200	0.32493700	-0.12000300	-0.62002400	-0.13633000	0.10852500	-4.05074300	-0.49646700	0.15606200	-0.54762100	0.28823700	0.03626300	-0.23164100	1.87399400	3.47096100	-1.79497200
2771	27.70000000	0.31088300	-0.18632500	-0.08007300	0.23864800	0.03831700	-0.20295100	-0.17756500	-0.16676700	-0.58311400	0.38810300	-0.12140600	-0.63118500	0.19543200	0.10344800	-4.02437100	-0.51245600	0.19868800	-0.46905200	0.28470500	0.03566100	-0.22800600	1.89182800	3.39388100	-1.76077900
